# xmcd CD database file
#
# Track frame offsets:
#	150
#	23264
#	46009
#	70661
#	86749
#	103630
#	114401
#	124379
#	136550
#	159293
#	179473
#	189561
#	208736
#	228876
#	271770
#	301109
#	317855
#
# Disc length: 4575 seconds
#
# Revision: 3
# Processed by: cddbd v1.5.2PL0 Copyright (c) Steve Scherf et al.
# Submitted via: CDex 1.50
#
DISCID=d211dd11
DTITLE=Anne-Sophie Mutter - Tango Song and Dance
DYEAR=2003
DGENRE=Classical
TTITLE0=Tango Song and Dance: Tango. Passionately
TTITLE1=Tango Song and Dance: Song. Simply
TTITLE2=Tango Song and Dance: Dance. Jazz Feeling
TTITLE3=3 Hungarian Dances: No. 1 in G Minor. Allegro Molto
TTITLE4=3 Hungarian Dances: Tango Song and Dance: No. 6 in B Flat Major. Vivace
TTITLE5=3 Hungarian Dances: No. 7 in a Major. Allegretto
TTITLE6=Porgy and Bess: Summertime
TTITLE7=Porgy and Bess: It Ain't Necessarily So
TTITLE8=Bess, You Is My Woman Now
TTITLE9=Porgy and Bess: My Man's Gone Now
TTITLE10=Schön Rosmarin
TTITLE11=Caprice Viennois Op. 2
TTITLE12=Liebesleid (Chagrin d'Amour)
TTITLE13=Sonata for Violin and Piano No. 1 in a Major, Op. 13: Allegro Molto
TTITLE14=Sonata for Violin and Piano No. 1 in a Major, Op. 13: Andante
TTITLE15=Sonata for Violin and Piano No. 1 in a Major, Op. 13: Allegro Vivo
TTITLE16=Sonata for Violin and Piano No. 1 in a Major, Op. 13: Allegro Quasi Pre
EXTD=YEAR: 2003
EXTT0=
EXTT1=
EXTT2=
EXTT3=
EXTT4=
EXTT5=
EXTT6=
EXTT7=
EXTT8=
EXTT9=
EXTT10=
EXTT11=
EXTT12=
EXTT13=
EXTT14=
EXTT15=
EXTT16=
PLAYORDER=
